<svg width="1025" height="1024" viewBox="0 0 1025 1024" fill="none" xmlns="http://www.w3.org/2000/svg">
<rect width="1024" height="1024" transform="translate(0.568359)" fill="black"/>
<path d="M410.911 174.739C568.247 175.119 667.178 299.989 672.908 419.616L559.566 419.34C553.922 362.579 506.251 287.916 410.634 287.692C327.047 287.485 258.873 355.283 258.665 438.812C258.476 514.976 312.756 592.019 366.623 634.568C388.335 652.022 424.511 678.842 459.496 704.764L481.26 720.89C489.527 726.996 497.466 732.86 504.923 738.483L511.809 743.674L526.566 732.653C536.11 725.478 545.965 718.079 556.252 710.973C588.251 687.483 631.537 655.489 657.513 635.327C711.621 593.002 766.282 516.235 766.471 440.071C766.592 390.295 742.498 344.038 701.835 315.598C678.569 258.975 635.801 209.199 583.867 177.206C594.689 175.878 605.269 175.222 615.521 175.257C761.432 175.619 879.849 294.539 879.503 440.347C879.21 561.785 800.731 666.665 727.379 724.323C704.648 742.191 668.749 768.665 634.04 794.277L623.995 801.694C600.937 818.527 577.498 835.74 559.6 849.262L511.705 786.551L463.5 849.037C445.688 835.429 422.302 818.096 399.312 801.125L389.336 793.691C354.748 767.906 318.987 741.259 296.343 723.271C223.284 665.665 145.34 560.646 145.634 438.536C145.996 292.71 265 174.377 410.911 174.739Z" fill="#395AFF"/>
</svg>
